<svg width="64" height="64" viewBox="0 0 64 64" fill="none" xmlns="http://www.w3.org/2000/svg">
<path d="M56.3199 5.68018H7.67993C7.1495 5.68018 6.64079 5.89089 6.26572 6.26596C5.89065 6.64104 5.67993 7.14974 5.67993 7.68018V56.3202C5.67993 56.8506 5.89065 57.3593 6.26572 57.7344C6.64079 58.1095 7.1495 58.3202 7.67993 58.3202H39.9999C40.2871 58.3248 40.5717 58.2652 40.8329 58.1458C41.0941 58.0265 41.3254 57.8503 41.5099 57.6302L57.5999 41.5702C57.8296 41.3789 58.0135 41.1386 58.1381 40.8669C58.2627 40.5952 58.3249 40.299 58.3199 40.0002V7.68018C58.3199 7.14974 58.1092 6.64104 57.7341 6.26596C57.3591 5.89089 56.8504 5.68018 56.3199 5.68018V5.68018ZM9.67993 9.68018H54.3199V12.6802H9.67993V9.68018ZM41.9999 51.4902V42.0002H51.4599L41.9999 51.4902Z" fill="#101d2e" id="id_110"></path>
</svg>